<svg width="565" height="383" viewBox="0 0 565 383" fill="none" xmlns="http://www.w3.org/2000/svg">
<rect y="97.5353" width="137.936" height="403.07" rx="15" transform="rotate(-45 0 97.5353)" fill="#109E92"/>
<rect x="108.326" y="182.576" width="105.889" height="134.093" rx="10" transform="rotate(-45 108.326 182.576)" fill="#11958A"/>
<line x1="125.488" y1="184.142" x2="183.893" y2="125.737" stroke="#10847A" stroke-width="2.5"/>
<circle cx="126.785" cy="182.951" r="4.5428" fill="#10847A"/>
<circle cx="183.777" cy="125.959" r="4.5428" fill="#10847A"/>
<line x1="151.919" y1="209.747" x2="210.324" y2="151.342" stroke="#10847A" stroke-width="2.5"/>
<circle cx="153.216" cy="208.556" r="4.5428" fill="#10847A"/>
<circle cx="210.208" cy="151.564" r="4.5428" fill="#10847A"/>
<line x1="177.524" y1="236.178" x2="235.928" y2="177.773" stroke="#10847A" stroke-width="2.5"/>
<circle cx="178.821" cy="234.986" r="4.5428" fill="#10847A"/>
<circle cx="235.812" cy="177.995" r="4.5428" fill="#10847A"/>
<path d="M463.746 8.76068C468.585 3.9223 476.429 3.9223 481.268 8.76068L561.282 88.7747C566.12 93.6131 566.12 101.458 561.282 106.296L293.79 373.788C288.951 378.627 281.107 378.627 276.268 373.788L196.254 293.774C191.416 288.936 191.416 281.091 196.254 276.253L463.746 8.76068Z" fill="#DD494B"/>
<path d="M159.411 256.462C200.187 250.565 231.873 230.564 293.217 180.06L273.394 207.317L201.535 299.412L159.411 256.462Z" fill="#DD494B"/>
<circle cx="480.71" cy="85.0742" r="25.6049" fill="#DDDDD1"/>
<mask id="mask0_1_10" style="mask-type:alpha" maskUnits="userSpaceOnUse" x="462" y="51" width="52" height="52">
<circle cx="488.144" cy="76.8146" r="25.6049" fill="white"/>
</mask>
<g mask="url(#mask0_1_10)">
<circle cx="480.71" cy="85.0742" r="25.6049" fill="white"/>
</g>
</svg>
